<?xml version="1.0" encoding="UTF-8"?>
<svg width="496px" height="376px" viewBox="0 0 496 376" version="1.1" xmlns="http://www.w3.org/2000/svg" xmlns:xlink="http://www.w3.org/1999/xlink">
    <!-- Generator: Sketch 52.6 (67491) - http://www.bohemiancoding.com/sketch -->
    <title>listens</title>
    <desc>Created with Sketch.</desc>
    <g id="Page-1" stroke="none" stroke-width="1" fill="none" fill-rule="evenodd">
        <g id="listens" fill="#000000" fill-rule="nonzero">
            <path d="M488,240 L464,240 L464,208 C463.982372,194.752475 453.247525,184.017628 440,184 L431.85,184 C430.03,135.1 411.36,94.47 377.6,66.11 C359.22,50.67 337.07,39.32 312,32.31 L312,28.45 C311.949126,17.2213528 304.167259,7.50852263 293.22,5.01 C263.440062,-1.64000274 232.559938,-1.64000274 202.78,5.01 C191.832741,7.50852263 184.050874,17.2213528 184,28.45 L184,32.31 C158.93,39.32 136.78,50.67 118.4,66.11 C84.64,94.47 65.97,135.1 64.15,184 L56,184 C42.7524747,184.017628 32.0176281,194.752475 32,208 L32,240 L8,240 C3.581722,240 0,243.581722 0,248 L0,312 C0,316.418278 3.581722,320 8,320 L32,320 L32,352 C32.0176281,365.247525 42.7524747,375.982372 56,376 L104,376 C117.247525,375.982372 127.982372,365.247525 128,352 L128,208 C127.982372,194.752475 117.247525,184.017628 104,184 L80.17,184 C81.95,140 98.64,103.6 128.69,78.36 C144.26,65.29 162.93,55.42 184.04,48.98 C184.381949,55.901806 187.701994,62.3371288 193.144516,66.6274999 C198.587037,70.917871 205.619666,72.6436206 212.43,71.36 C235.933624,66.8999927 260.066376,66.8999927 283.57,71.36 C285.043729,71.6384755 286.540192,71.7790828 288.04,71.78 C300.811508,71.7594671 311.32751,61.7358529 311.96,48.98 C333.07,55.42 351.74,65.29 367.31,78.36 C397.36,103.6 414.05,140 415.83,184 L392,184 C378.752475,184.017628 368.017628,194.752475 368,208 L368,352 C368.017628,365.247525 378.752475,375.982372 392,376 L440,376 C453.247525,375.982372 463.982372,365.247525 464,352 L464,320 L488,320 C492.418278,320 496,316.418278 496,312 L496,248 C496,245.878268 495.157145,243.843437 493.656854,242.343146 C492.156563,240.842855 490.121732,240 488,240 Z M16,304 L16,256 L32,256 L32,304 L16,304 Z M104,200 C108.415766,200.006059 111.993941,203.584234 112,208 L112,352 C111.993941,356.415766 108.415766,359.993941 104,360 L56,360 C51.5842342,359.993941 48.0060592,356.415766 48,352 L48,208 C48.0060592,203.584234 51.5842342,200.006059 56,200 L104,200 Z M296,47.78 C296.002582,50.1635621 294.938746,52.423297 293.1,53.94 C291.28409,55.4717868 288.87131,56.0970498 286.54,55.64 C261.073348,50.8133263 234.926652,50.8133263 209.46,55.64 C207.128641,56.098692 204.715156,55.473246 202.9,53.94 C201.061254,52.423297 199.997418,50.1635621 200,47.78 L200,28.45 C200.014017,24.7080314 202.603159,21.4684965 206.25,20.63 C233.744714,14.4899967 262.255286,14.4899967 289.75,20.63 C293.396841,21.4684965 295.985983,24.7080314 296,28.45 L296,47.78 Z M448,352 C447.993941,356.415766 444.415766,359.993941 440,360 L392,360 C387.584234,359.993941 384.006059,356.415766 384,352 L384,208 C384.006059,203.584234 387.584234,200.006059 392,200 L440,200 C444.415766,200.006059 447.993941,203.584234 448,208 L448,352 Z M480,304 L464,304 L464,256 L480,256 L480,304 Z" id="Shape"></path>
        </g>
    </g>
</svg>