<?xml version="1.0" encoding="UTF-8"?>
<svg width="496px" height="496px" viewBox="0 0 496 496" version="1.1" xmlns="http://www.w3.org/2000/svg" xmlns:xlink="http://www.w3.org/1999/xlink">
    <!-- Generator: Sketch 52.6 (67491) - http://www.bohemiancoding.com/sketch -->
    <title>thoughts</title>
    <desc>Created with Sketch.</desc>
    <g id="Page-1" stroke="none" stroke-width="1" fill="none" fill-rule="evenodd">
        <g id="thoughts" fill="#000000" fill-rule="nonzero">
            <path d="M398.855469,145.113281 C399.617188,139.449219 400,133.71875 400,128 C400,57.425781 342.574219,0 272,0 C220.726562,0 174.742188,30.632812 154.617188,77.167969 C139.167969,68.527344 121.855469,64 104,64 C46.65625,64 0,110.65625 0,168 C0,213.089844 28.472656,252.175781 70.40625,266.375 C66.191406,275.65625 64,285.734375 64,296 C64,335.703125 96.304688,368 136,368 C145.910156,368 155.734375,365.910156 164.832031,361.921875 C182.976562,395.03125 217.894531,416 256,416 C294.0625,416 329.078125,394.960938 347.207031,361.808594 C359.007812,365.921875 371.351562,368 384,368 C445.761719,368 496,317.761719 496,256 C496,199.503906 454,152.40625 398.855469,145.113281 Z M384,352 C370.984375,352 358.351562,349.433594 346.449219,344.367188 C342.472656,342.664062 337.839844,344.464844 336.03125,348.40625 C321.753906,379.753906 290.335938,400 256,400 C221.382812,400 189.863281,379.535156 175.695312,347.863281 C174.769531,345.785156 173,344.199219 170.832031,343.511719 C170.039062,343.257812 169.214844,343.128906 168.398438,343.128906 C166.992188,343.128906 165.585938,343.503906 164.34375,344.230469 C155.703125,349.3125 145.902344,352 136,352 C105.121094,352 80,326.871094 80,296 C80,285.28125 83.089844,274.824219 88.929688,265.753906 C90.335938,263.566406 90.59375,260.832031 89.617188,258.414062 C88.640625,256.007812 86.550781,254.222656 84.015625,253.632812 C43.96875,244.3125 16,209.105469 16,168 C16,119.480469 55.480469,80 104,80 C121.953125,80 139.257812,85.414062 154.023438,95.648438 C156.070312,97.070312 158.679688,97.457031 161.070312,96.671875 C163.449219,95.886719 165.328125,94.039062 166.144531,91.664062 C181.679688,46.40625 224.222656,16 272,16 C333.761719,16 384,66.238281 384,128 C384,135.617188 383.222656,143.238281 381.703125,150.671875 C381.230469,152.953125 381.785156,155.328125 383.207031,157.167969 C384.632812,159.007812 386.792969,160.144531 389.121094,160.273438 C440.078125,162.953125 480,205.007812 480,256 C480,308.9375 436.9375,352 384,352 Z" id="Shape"></path>
            <path d="M24,448 C10.769531,448 0,458.769531 0,472 C0,485.230469 10.769531,496 24,496 C37.230469,496 48,485.230469 48,472 C48,458.769531 37.230469,448 24,448 Z M24,480 C19.59375,480 16,476.414062 16,472 C16,467.585938 19.59375,464 24,464 C28.40625,464 32,467.585938 32,472 C32,476.414062 28.40625,480 24,480 Z" id="Shape"></path>
            <path d="M88,376 C65.945312,376 48,393.945312 48,416 C48,438.054688 65.945312,456 88,456 C110.054688,456 128,438.054688 128,416 C128,393.945312 110.054688,376 88,376 Z M88,440 C74.769531,440 64,429.230469 64,416 C64,402.769531 74.769531,392 88,392 C101.230469,392 112,402.769531 112,416 C112,429.230469 101.230469,440 88,440 Z" id="Shape"></path>
        </g>
    </g>
</svg>