<?xml version="1.0" encoding="UTF-8"?>
<svg width="128px" height="82px" viewBox="0 0 128 82" version="1.1" xmlns="http://www.w3.org/2000/svg" xmlns:xlink="http://www.w3.org/1999/xlink">
    <!-- Generator: Sketch 52.6 (67491) - http://www.bohemiancoding.com/sketch -->
    <title>Artboard</title>
    <desc>Created with Sketch.</desc>
    <g id="Artboard" stroke="none" stroke-width="1" fill="none" fill-rule="evenodd" fill-opacity="0.5">
        <g id="Group" transform="translate(3.000000, 2.000000)" fill="#139217">
            <g id="lightbulb" transform="translate(96.000000, 45.000000)">
                <path d="M13,5.6395 C9.1424375,5.63725 6.011,8.7579375 6,12.6155 C6.0155,13.3640625 6.1394375,14.1065 6.368,14.8195 C6.7051875,15.5783125 7.0953125,16.3124375 7.5355,17.0165 C8.559,18.8 10.105,21.497 10.105,22.5 C10.105,22.776125 10.328875,23 10.605,23 L15.395,23 C15.671125,23 15.895,22.776125 15.895,22.5 C15.895,21.497 17.441,18.8 18.4645,17.0165 C18.9046875,16.3124375 19.2948125,15.5783125 19.632,14.8195 C19.8605625,14.1065 19.9845,13.364125 20,12.6155 C19.989,8.7579375 16.8575625,5.63725 13,5.6395 Z M18.684,14.5 C18.3589375,15.19175 17.996,15.865125 17.597,16.517 C16.3075,18.7675 15.2115,20.75 14.9525,22 L11.05,22 C10.791,20.75 9.695,18.7675 8.4055,16.519 C8.0055625,15.8665 7.6418125,15.1925 7.316,14.5 C7.1230625,13.8896875 7.0166875,13.255375 7,12.6155 C7,9.3018125 9.6863125,6.6155 13,6.6155 C16.3136875,6.6155 19,9.3018125 19,12.6155 C18.9833125,13.255375 18.8769375,13.8896875 18.684,14.5 Z" id="Shape" fill-rule="nonzero"></path>
                <path d="M15.4335,28.7895 C15.2954375,28.5500625 14.9894375,28.4679375 14.75,28.606 L14.0665,29 L11.9335,29 L11.25,28.606 C11.0105625,28.4679375 10.7045625,28.5500625 10.5665,28.7895 C10.4284375,29.0289375 10.5105625,29.3349375 10.75,29.473 L11.55,29.9335 C11.6260625,29.9771875 11.71225,30.000125 11.8,30 L14.2,30 C14.28775,30.000125 14.3739375,29.9771875 14.45,29.9335 L15.25,29.473 C15.4894375,29.3349375 15.5715625,29.0289375 15.4335,28.7895 Z" id="Path"></path>
                <path d="M15.4975,24.05 C15.469875,23.77525 15.22475,23.574875 14.95,23.6025 L10.95,24.0025 C10.67525,24.0300625 10.474875,24.2751875 10.5024375,24.5499375 C10.5280625,24.8055 10.7431875,25 11,25 C11.0165,25 11.033,25 11.05,24.9975 L15.05,24.5975 C15.32475,24.569875 15.525125,24.32475 15.4975,24.05 Z" id="Path"></path>
                <path d="M15.4975,25.55 C15.469875,25.27525 15.22475,25.074875 14.95,25.1025 L10.95,25.5025 C10.67525,25.5300625 10.474875,25.7751875 10.5024375,26.0499375 C10.5280625,26.3055 10.7431875,26.5 11,26.5 C11.0165,26.5 11.033,26.5 11.05,26.4975 L15.05,26.0975 C15.32475,26.069875 15.525125,25.82475 15.4975,25.55 Z" id="Path"></path>
                <path d="M15.4975,27.05 C15.469875,26.77525 15.22475,26.574875 14.95,26.6025 L10.95,27.0025 C10.67525,27.0300625 10.474875,27.2751875 10.5024375,27.5499375 C10.5280625,27.8055 10.7431875,28 11,28 C11.0165,28 11.033,28 11.05,27.9975 L15.05,27.5975 C15.32475,27.569875 15.525125,27.32475 15.4975,27.05 Z" id="Path"></path>
                <path d="M13,0 C12.723875,0 12.5,0.223875 12.5,0.5 L12.5,4 C12.5,4.276125 12.723875,4.5 13,4.5 C13.276125,4.5 13.5,4.276125 13.5,4 L13.5,0.5 C13.5,0.223875 13.276125,0 13,0 Z" id="Path"></path>
                <path d="M22.20475,3.8075 C22.012875,3.608875 21.696375,3.603375 21.49775,3.79525 C21.4935625,3.79925 21.4895,3.803375 21.4855,3.8075 L19.0105,6.2825 C18.811875,6.474375 18.806375,6.790875 18.99825,6.9895 C19.190125,7.188125 19.506625,7.193625 19.70525,7.00175 C19.7094375,6.99775 19.7135,6.993625 19.7175,6.9895 L22.1925,4.5145 C22.391125,4.322625 22.396625,4.006125 22.20475,3.8075 Z" id="Path"></path>
                <path d="M25.5,12.5 L22,12.5 C21.723875,12.5 21.5,12.723875 21.5,13 C21.5,13.276125 21.723875,13.5 22,13.5 L25.5,13.5 C25.776125,13.5 26,13.276125 26,13 C26,12.723875 25.776125,12.5 25.5,12.5 Z" id="Path"></path>
                <path d="M22.1925,21.4855 L19.7175,19.0105 C19.52225,18.8153125 19.20575,18.8153125 19.0105,19.0105 C18.8153125,19.20575 18.8153125,19.52225 19.0105,19.7175 L21.4855,22.1925 C21.684125,22.384375 22.000625,22.378875 22.1925,22.18025 C22.3796875,21.9865 22.3796875,21.67925 22.1925,21.4855 Z" id="Path"></path>
                <path d="M6.97725,19.0105 C6.7835,18.823375 6.4763125,18.823375 6.2825,19.0105 L3.8075,21.4855 C3.61225,21.6808125 3.6123125,21.997375 3.807625,22.192625 C3.901375,22.2863125 4.0285,22.339 4.161,22.339 C4.293625,22.339 4.42075,22.28625 4.5145,22.1925 L6.9895,19.7175 C7.1813125,19.518875 7.175875,19.2023125 6.97725,19.0105 Z" id="Path"></path>
                <path d="M4,12.5 L0.5,12.5 C0.223875,12.5 0,12.723875 0,13 C0,13.276125 0.223875,13.5 0.5,13.5 L4,13.5 C4.276125,13.5 4.5,13.276125 4.5,13 C4.5,12.723875 4.276125,12.5 4,12.5 Z" id="Path"></path>
                <path d="M6.9895,6.2825 L4.5145,3.8075 C4.3226875,3.608875 4.006125,3.603375 3.8075,3.7951875 C3.608875,3.987 3.603375,4.3035625 3.7951875,4.5021875 C3.7991875,4.506375 3.8033125,4.5104375 3.8075,4.5145 L6.2825,6.9895 C6.376,7.083625 6.5033125,7.136375 6.636,7.136 C6.912125,7.1359375 7.1359375,6.9120625 7.135875,6.635875 C7.135875,6.503375 7.0831875,6.37625 6.9895,6.2825 Z" id="Path"></path>
                <path d="M16.1465625,13.522375 C16.047125,13.491875 15.940625,13.493125 15.842,13.526 L13,14.473 L10.158,13.526 C9.896,13.43875 9.612875,13.5804375 9.525625,13.8424375 C9.49275,13.941125 9.4915,14.0475625 9.522,14.147 L11.522,20.647 C11.6031875,20.911 11.883,21.0591875 12.147,20.978 C12.411,20.8968125 12.5591875,20.617 12.478,20.353 L10.7635,14.7815 L12.842,15.474 C12.9445,15.5085 13.0555,15.5085 13.158,15.474 L15.2365,14.7815 L13.522,20.353 C13.4408125,20.617 13.589,20.8968125 13.853,20.978 C14.117,21.0591875 14.3968125,20.911 14.478,20.647 L16.478,14.147 C16.559,13.883 16.410625,13.6033125 16.1465625,13.522375 Z" id="Path"></path>
            </g>
            <g id="lightbulb" transform="translate(11.000000, 44.000000)">
                <path d="M13,5.6395 C9.1424375,5.63725 6.011,8.7579375 6,12.6155 C6.0155,13.3640625 6.1394375,14.1065 6.368,14.8195 C6.7051875,15.5783125 7.0953125,16.3124375 7.5355,17.0165 C8.559,18.8 10.105,21.497 10.105,22.5 C10.105,22.776125 10.328875,23 10.605,23 L15.395,23 C15.671125,23 15.895,22.776125 15.895,22.5 C15.895,21.497 17.441,18.8 18.4645,17.0165 C18.9046875,16.3124375 19.2948125,15.5783125 19.632,14.8195 C19.8605625,14.1065 19.9845,13.364125 20,12.6155 C19.989,8.7579375 16.8575625,5.63725 13,5.6395 Z M18.684,14.5 C18.3589375,15.19175 17.996,15.865125 17.597,16.517 C16.3075,18.7675 15.2115,20.75 14.9525,22 L11.05,22 C10.791,20.75 9.695,18.7675 8.4055,16.519 C8.0055625,15.8665 7.6418125,15.1925 7.316,14.5 C7.1230625,13.8896875 7.0166875,13.255375 7,12.6155 C7,9.3018125 9.6863125,6.6155 13,6.6155 C16.3136875,6.6155 19,9.3018125 19,12.6155 C18.9833125,13.255375 18.8769375,13.8896875 18.684,14.5 Z" id="Shape" fill-rule="nonzero"></path>
                <path d="M15.4335,28.7895 C15.2954375,28.5500625 14.9894375,28.4679375 14.75,28.606 L14.0665,29 L11.9335,29 L11.25,28.606 C11.0105625,28.4679375 10.7045625,28.5500625 10.5665,28.7895 C10.4284375,29.0289375 10.5105625,29.3349375 10.75,29.473 L11.55,29.9335 C11.6260625,29.9771875 11.71225,30.000125 11.8,30 L14.2,30 C14.28775,30.000125 14.3739375,29.9771875 14.45,29.9335 L15.25,29.473 C15.4894375,29.3349375 15.5715625,29.0289375 15.4335,28.7895 Z" id="Path"></path>
                <path d="M15.4975,24.05 C15.469875,23.77525 15.22475,23.574875 14.95,23.6025 L10.95,24.0025 C10.67525,24.0300625 10.474875,24.2751875 10.5024375,24.5499375 C10.5280625,24.8055 10.7431875,25 11,25 C11.0165,25 11.033,25 11.05,24.9975 L15.05,24.5975 C15.32475,24.569875 15.525125,24.32475 15.4975,24.05 Z" id="Path"></path>
                <path d="M15.4975,25.55 C15.469875,25.27525 15.22475,25.074875 14.95,25.1025 L10.95,25.5025 C10.67525,25.5300625 10.474875,25.7751875 10.5024375,26.0499375 C10.5280625,26.3055 10.7431875,26.5 11,26.5 C11.0165,26.5 11.033,26.5 11.05,26.4975 L15.05,26.0975 C15.32475,26.069875 15.525125,25.82475 15.4975,25.55 Z" id="Path"></path>
                <path d="M15.4975,27.05 C15.469875,26.77525 15.22475,26.574875 14.95,26.6025 L10.95,27.0025 C10.67525,27.0300625 10.474875,27.2751875 10.5024375,27.5499375 C10.5280625,27.8055 10.7431875,28 11,28 C11.0165,28 11.033,28 11.05,27.9975 L15.05,27.5975 C15.32475,27.569875 15.525125,27.32475 15.4975,27.05 Z" id="Path"></path>
                <path d="M13,0 C12.723875,0 12.5,0.223875 12.5,0.5 L12.5,4 C12.5,4.276125 12.723875,4.5 13,4.5 C13.276125,4.5 13.5,4.276125 13.5,4 L13.5,0.5 C13.5,0.223875 13.276125,0 13,0 Z" id="Path"></path>
                <path d="M22.20475,3.8075 C22.012875,3.608875 21.696375,3.603375 21.49775,3.79525 C21.4935625,3.79925 21.4895,3.803375 21.4855,3.8075 L19.0105,6.2825 C18.811875,6.474375 18.806375,6.790875 18.99825,6.9895 C19.190125,7.188125 19.506625,7.193625 19.70525,7.00175 C19.7094375,6.99775 19.7135,6.993625 19.7175,6.9895 L22.1925,4.5145 C22.391125,4.322625 22.396625,4.006125 22.20475,3.8075 Z" id="Path"></path>
                <path d="M25.5,12.5 L22,12.5 C21.723875,12.5 21.5,12.723875 21.5,13 C21.5,13.276125 21.723875,13.5 22,13.5 L25.5,13.5 C25.776125,13.5 26,13.276125 26,13 C26,12.723875 25.776125,12.5 25.5,12.5 Z" id="Path"></path>
                <path d="M22.1925,21.4855 L19.7175,19.0105 C19.52225,18.8153125 19.20575,18.8153125 19.0105,19.0105 C18.8153125,19.20575 18.8153125,19.52225 19.0105,19.7175 L21.4855,22.1925 C21.684125,22.384375 22.000625,22.378875 22.1925,22.18025 C22.3796875,21.9865 22.3796875,21.67925 22.1925,21.4855 Z" id="Path"></path>
                <path d="M6.97725,19.0105 C6.7835,18.823375 6.4763125,18.823375 6.2825,19.0105 L3.8075,21.4855 C3.61225,21.6808125 3.6123125,21.997375 3.807625,22.192625 C3.901375,22.2863125 4.0285,22.339 4.161,22.339 C4.293625,22.339 4.42075,22.28625 4.5145,22.1925 L6.9895,19.7175 C7.1813125,19.518875 7.175875,19.2023125 6.97725,19.0105 Z" id="Path"></path>
                <path d="M4,12.5 L0.5,12.5 C0.223875,12.5 0,12.723875 0,13 C0,13.276125 0.223875,13.5 0.5,13.5 L4,13.5 C4.276125,13.5 4.5,13.276125 4.5,13 C4.5,12.723875 4.276125,12.5 4,12.5 Z" id="Path"></path>
                <path d="M6.9895,6.2825 L4.5145,3.8075 C4.3226875,3.608875 4.006125,3.603375 3.8075,3.7951875 C3.608875,3.987 3.603375,4.3035625 3.7951875,4.5021875 C3.7991875,4.506375 3.8033125,4.5104375 3.8075,4.5145 L6.2825,6.9895 C6.376,7.083625 6.5033125,7.136375 6.636,7.136 C6.912125,7.1359375 7.1359375,6.9120625 7.135875,6.635875 C7.135875,6.503375 7.0831875,6.37625 6.9895,6.2825 Z" id="Path"></path>
                <path d="M16.1465625,13.522375 C16.047125,13.491875 15.940625,13.493125 15.842,13.526 L13,14.473 L10.158,13.526 C9.896,13.43875 9.612875,13.5804375 9.525625,13.8424375 C9.49275,13.941125 9.4915,14.0475625 9.522,14.147 L11.522,20.647 C11.6031875,20.911 11.883,21.0591875 12.147,20.978 C12.411,20.8968125 12.5591875,20.617 12.478,20.353 L10.7635,14.7815 L12.842,15.474 C12.9445,15.5085 13.0555,15.5085 13.158,15.474 L15.2365,14.7815 L13.522,20.353 C13.4408125,20.617 13.589,20.8968125 13.853,20.978 C14.117,21.0591875 14.3968125,20.911 14.478,20.647 L16.478,14.147 C16.559,13.883 16.410625,13.6033125 16.1465625,13.522375 Z" id="Path"></path>
            </g>
            <g id="solution" transform="translate(88.490381, 28.490381) rotate(-30.000000) translate(-88.490381, -28.490381) translate(73.490381, 13.490381)">
                <path d="M24.3135,9.3765 L21.1335,6.1965 C20.9998605,6.06175374 20.8014558,6.01428096 20.6212994,6.07394452 C20.441143,6.13360808 20.3102939,6.29012197 20.2835,6.478 C20.1374954,7.49892192 19.2391334,8.24142833 18.20898,8.19261433 C17.1788265,8.14380033 16.3546997,7.31967347 16.3058857,6.28952004 C16.2570717,5.25936661 16.9995781,4.36100457 18.0205,4.215 C18.208378,4.18820609 18.3648919,4.05735697 18.4245555,3.87720058 C18.484219,3.69704419 18.4367463,3.49863948 18.302,3.365 L15.122,0.185 C14.9267501,-0.0101909692 14.6102499,-0.0101909692 14.415,0.185 L11.6535,2.9455 C11.2775865,1.53853258 9.9455052,0.604758764 8.49468501,0.731206624 C7.04386481,0.857654484 5.89340957,2.00779655 5.76656672,3.45858227 C5.63972386,4.90936798 6.57313498,6.24170343 7.98,6.618 L5.2215,9.3765 C5.02630903,9.57174993 5.02630903,9.88825007 5.2215,10.0835 L7.981,12.8465 C6.73892218,13.1801622 5.84770761,14.2684187 5.76544631,15.5518987 C5.68318501,16.8353786 6.42818038,18.0285037 7.6175,18.518 L6.45,21.8855 C6.13567675,22.5936453 6.16744081,23.4075068 6.536,24.089 L8.291,28.239 C8.29749026,28.2549686 8.30500592,28.270501 8.3135,28.2855 C8.43641639,28.5107652 8.50055953,28.7633825 8.5,29.02 L8.5,29.5 C8.5,29.7761424 8.72385763,30 9,30 C9.27614237,30 9.5,29.7761424 9.5,29.5 L9.5,29.02 C9.4994668,28.6040518 9.39642838,28.1946458 9.2,27.828 L7.4445,23.678 C7.43753565,23.6608557 7.42952044,23.6441574 7.4205,23.628 C7.18808125,23.2037964 7.17173927,22.6942239 7.3765,22.256 L8.5995,18.736 C8.652,18.736 8.7035,18.7435 8.7565,18.7435 C10.1133936,18.7446891 11.3015054,17.8333452 11.652,16.5225 L12.5,17.367 L12.5,22.5 C12.5,22.7761424 12.7238576,23 13,23 C13.2761424,23 13.5,22.7761424 13.5,22.5 L13.5,15.5 C13.5,14.6715729 14.1715729,14 15,14 C15.8284271,14 16.5,14.6715729 16.5,15.5 L16.5,21.5555 C16.5008808,22.2540035 16.6634586,22.9428201 16.975,23.568 L17.158,23.935 C17.6484719,24.9206905 17.6484719,26.0793095 17.158,27.065 L16.658,28.065 C16.5541974,28.273455 16.5001159,28.50313 16.5,28.736 L16.5,29.5 C16.5,29.7761424 16.7238576,30 17,30 C17.2761424,30 17.5,29.7761424 17.5,29.5 L17.5,28.736 C17.4994895,28.6586709 17.5165881,28.5822402 17.55,28.5125 L18.05,27.5125 C18.6804773,26.2450778 18.6804773,24.7554222 18.05,23.488 L17.867,23.121 C17.687737,22.7609517 17.5715528,22.3728256 17.5235,21.9735 C18.1793932,22.6317622 19.0707511,23.0012268 20,23 C20.8284271,23 21.5,22.3284271 21.5,21.5 L21.5,18.65 C22.827409,18.3215532 23.7641767,17.1362533 23.7770154,15.7688736 C23.7898541,14.401494 22.8755078,13.1988135 21.5545,12.8455 L24.3135,10.0825 C24.5080254,9.88736512 24.5080254,9.57163488 24.3135,9.3765 Z M20,22 C18.6199734,21.9983469 17.5016531,20.8800266 17.5,19.5 L17.5,16.9 L17.882,16.518 C18.2047778,17.7308432 19.2501897,18.6133338 20.5,18.728 L20.5,21.5 C20.5,21.7761424 20.2761424,22 20,22 Z M20.0715,12.9165 C19.9175724,13.0686688 19.8790332,13.302602 19.9760131,13.4961064 C20.072993,13.6896108 20.2834687,13.7987435 20.4975,13.7665 C21.3493921,13.6459324 22.182928,14.0837035 22.5672015,14.8535026 C22.9514751,15.6233017 22.8003608,16.5525972 22.191979,17.160979 C21.5835972,17.7693608 20.6543017,17.9204751 19.8845026,17.5362015 C19.1147035,17.151928 18.6769324,16.3183921 18.7975,15.4665 C18.8297435,15.2524687 18.7206108,15.041993 18.5271064,14.9450131 C18.333602,14.8480332 18.0996688,14.8865724 17.9475,15.0405 L17.5,15.489 C17.498035,14.595836 17.019722,13.7715668 16.2452369,13.3266865 C15.4707517,12.8818062 14.5177571,12.8839028 13.7452369,13.3321865 C12.9727166,13.7804702 12.498035,14.606836 12.5,15.5 L12.5,15.953 L11.5835,15.0365 C11.4313312,14.8825724 11.197398,14.8440332 11.0038936,14.9410131 C10.8103892,15.037993 10.7012565,15.2484687 10.7335,15.4625 C10.8540676,16.3143921 10.4162965,17.147928 9.64649737,17.5322015 C8.87669828,17.9164751 7.94740276,17.7653608 7.33902098,17.156979 C6.7306392,16.5485972 6.57952493,15.6193017 6.96379845,14.8495026 C7.34807197,14.0797035 8.18160786,13.6419324 9.0335,13.7625 C9.24762457,13.7950191 9.45834127,13.6859838 9.55547191,13.4924058 C9.65260254,13.2988277 9.61406115,13.0647235 9.46,12.9125 L6.2815,9.73 L9.4635,6.55 C9.61742759,6.39783118 9.65596677,6.16389804 9.5589869,5.97039362 C9.46200704,5.7768892 9.25153132,5.66775647 9.0375,5.7 C8.18679462,5.81889505 7.35517547,5.38130505 6.97139332,4.61283453 C6.58761116,3.84436401 6.73738612,2.9166556 7.3435,2.308 C8.13527903,1.55371425 9.37972097,1.55371425 10.1715,2.308 C10.6150957,2.75276247 10.8239597,3.3800951 10.7355,4.002 C10.7032565,4.21603132 10.8123892,4.42650704 11.0058936,4.5234869 C11.199398,4.62046677 11.4333312,4.58192759 11.5855,4.428 L14.77,1.247 L17.0105,3.488 C15.8206084,4.05628299 15.1412955,5.33491754 15.3364199,6.63903179 C15.5315443,7.94314604 16.555354,8.96695567 17.8594682,9.16208009 C19.1635825,9.3572045 20.442217,8.67789157 21.0105,7.488 L23.2515,9.7285 L20.0715,12.9165 Z" id="Shape" fill-rule="nonzero"></path>
                <path d="M29.5,10.5 L26.5,10.5 C26.2238576,10.5 26,10.2761424 26,10 C26,9.72385763 26.2238576,9.5 26.5,9.5 L29.5,9.5 C29.7761424,9.5 30,9.72385763 30,10 C30,10.2761424 29.7761424,10.5 29.5,10.5 Z" id="Path"></path>
                <path d="M25.9595,4.75 C25.733206,4.74999004 25.5351295,4.59799421 25.4765595,4.37941117 C25.4179896,4.16082812 25.5135294,3.93015697 25.7095,3.817 L28.3095,2.317 C28.54843,2.18115485 28.8522102,2.26362922 28.9896373,2.50165285 C29.1270643,2.73967648 29.0466068,3.04399711 28.8095,3.183 L26.2095,4.683 C26.133565,4.72706539 26.0472944,4.75018591 25.9595,4.75 Z" id="Path"></path>
                <path d="M28.557,17.75 C28.4692056,17.7501859 28.382935,17.7270654 28.307,17.683 L25.707,16.183 C25.5510246,16.0943192 25.4545234,15.9288634 25.4541289,15.7494408 C25.4537345,15.5700183 25.5495073,15.4041398 25.7050913,15.3147741 C25.8606753,15.2254083 26.0522148,15.2262578 26.207,15.317 L28.807,16.817 C29.0029706,16.930157 29.0985104,17.1608281 29.0399405,17.3794112 C28.9813705,17.5979942 28.783294,17.74999 28.557,17.75 Z" id="Path"></path>
                <path d="M3.5,10.5 L0.5,10.5 C0.223857625,10.5 0,10.2761424 0,10 C0,9.72385763 0.223857625,9.5 0.5,9.5 L3.5,9.5 C3.77614237,9.5 4,9.72385763 4,10 C4,10.2761424 3.77614237,10.5 3.5,10.5 Z" id="Path"></path>
                <path d="M4.0405,4.75 C3.95270563,4.75018591 3.86643503,4.72706539 3.7905,4.683 L1.1905,3.183 C0.953393193,3.04399711 0.872935695,2.73967648 1.01036273,2.50165285 C1.14778977,2.26362922 1.45157002,2.18115485 1.6905,2.317 L4.2905,3.817 C4.48647063,3.93015697 4.58201042,4.16082812 4.52344047,4.37941117 C4.46487053,4.59799421 4.26679403,4.74999004 4.0405,4.75 Z" id="Path"></path>
                <path d="M1.443,17.75 C1.21670597,17.74999 1.01862947,17.5979942 0.960059525,17.3794112 C0.901489577,17.1608281 0.997029371,16.930157 1.193,16.817 L3.793,15.317 C3.94778521,15.2262578 4.13932473,15.2254083 4.29490871,15.3147741 C4.45049268,15.4041398 4.54626549,15.5700183 4.54587105,15.7494408 C4.54547661,15.9288634 4.44897539,16.0943192 4.293,16.183 L1.693,17.683 C1.61706497,17.7270654 1.53079437,17.7501859 1.443,17.75 Z" id="Path"></path>
            </g>
            <g id="radio" transform="translate(15.568244, 17.648584) rotate(30.000000) translate(-15.568244, -17.648584) translate(6.251838, 2.648584)">
                <path d="M12.8068945,13.573418 L5.61052734,13.573418 C5.35734375,13.573418 5.15214844,13.7786133 5.15214844,14.0317969 C5.15214844,14.2849805 5.35734375,14.4901758 5.61052734,14.4901758 L12.8068945,14.4901758 C13.0600781,14.4901758 13.2652734,14.2849805 13.2652734,14.0317969 C13.2652734,13.7786133 13.0600781,13.573418 12.8068945,13.573418 Z" id="Path"></path>
                <path d="M18.1664063,13.573418 L15.7583203,13.573418 L15.7583203,6.44185547 C15.7583203,4.83609375 15.1640039,3.29783203 14.0847656,2.11037109 C13.9146094,1.92304687 13.6246289,1.90927734 13.4373047,2.07943359 C13.2499805,2.24964844 13.2360937,2.53957031 13.4063672,2.72689453 C14.3318555,3.74525391 14.8415625,5.06455078 14.8415625,6.44179687 L14.8415625,15.6936328 C14.8415625,18.7402148 12.3630469,21.2187305 9.31646484,21.2187305 C6.26988281,21.2187305 3.79130859,18.7402148 3.79130859,15.6936328 L3.79130859,6.44185547 C3.79130859,3.39527344 6.26988281,0.916757812 9.31646484,0.916757812 C10.4237109,0.916757812 11.491875,1.24294922 12.4052344,1.86005859 C12.6150586,2.00167969 12.8999414,1.94666016 13.0417383,1.73683594 C13.183418,1.52712891 13.1282812,1.2421875 12.9185156,1.10039062 C11.8529297,0.380507812 10.6073437,0 9.31646484,0 C5.76439453,0 2.87455078,2.88984375 2.87455078,6.44185547 L2.87455078,13.573418 L0.46640625,13.573418 C0.213222656,13.573418 0.00802734375,13.7786133 0.00802734375,14.0317969 L0.00802734375,15.5738086 C0.00802734375,20.5527539 3.9375,24.6309961 8.85802734,24.8707617 L8.85802734,29.0831836 L5.15958984,29.0831836 C4.90640625,29.0831836 4.70121094,29.2883789 4.70121094,29.5415625 C4.70121094,29.7947461 4.90640625,29.9999414 5.15958984,29.9999414 L13.4732227,29.9999414 C13.7264063,29.9999414 13.9316016,29.7947461 13.9316016,29.5415625 C13.9316016,29.2883789 13.7264062,29.0831836 13.4732227,29.0831836 L9.77478516,29.0831836 L9.77478516,24.8707617 C14.6953711,24.6309375 18.6247266,20.5527539 18.6247266,15.5738086 L18.6247266,14.0317969 C18.6247852,13.7786133 18.4195898,13.573418 18.1664063,13.573418 Z M17.7080273,15.5738672 C17.7080273,20.2010156 13.9435547,23.9654297 9.31646484,23.9654297 C4.68925781,23.9654297 0.92484375,20.200957 0.92484375,15.5738672 L0.92484375,14.4902344 L2.87455078,14.4902344 L2.87455078,15.69375 C2.87455078,19.2457617 5.76439453,22.1356055 9.31646484,22.1356055 C12.8684766,22.1356055 15.7583203,19.2457617 15.7583203,15.69375 L15.7583203,14.4902344 L17.7080273,14.4902344 L17.7080273,15.5738672 Z" id="Shape" fill-rule="nonzero"></path>
            </g>
            <g id="radio" transform="translate(63.568244, 59.648584) rotate(30.000000) translate(-63.568244, -59.648584) translate(54.251838, 44.648584)">
                <path d="M12.8068945,13.573418 L5.61052734,13.573418 C5.35734375,13.573418 5.15214844,13.7786133 5.15214844,14.0317969 C5.15214844,14.2849805 5.35734375,14.4901758 5.61052734,14.4901758 L12.8068945,14.4901758 C13.0600781,14.4901758 13.2652734,14.2849805 13.2652734,14.0317969 C13.2652734,13.7786133 13.0600781,13.573418 12.8068945,13.573418 Z" id="Path"></path>
                <path d="M18.1664063,13.573418 L15.7583203,13.573418 L15.7583203,6.44185547 C15.7583203,4.83609375 15.1640039,3.29783203 14.0847656,2.11037109 C13.9146094,1.92304687 13.6246289,1.90927734 13.4373047,2.07943359 C13.2499805,2.24964844 13.2360938,2.53957031 13.4063672,2.72689453 C14.3318555,3.74525391 14.8415625,5.06455078 14.8415625,6.44179687 L14.8415625,15.6936328 C14.8415625,18.7402148 12.3630469,21.2187305 9.31646484,21.2187305 C6.26988281,21.2187305 3.79130859,18.7402148 3.79130859,15.6936328 L3.79130859,6.44185547 C3.79130859,3.39527344 6.26988281,0.916757812 9.31646484,0.916757812 C10.4237109,0.916757812 11.491875,1.24294922 12.4052344,1.86005859 C12.6150586,2.00167969 12.8999414,1.94666016 13.0417383,1.73683594 C13.183418,1.52712891 13.1282812,1.2421875 12.9185156,1.10039063 C11.8529297,0.380507813 10.6073438,0 9.31646484,0 C5.76439453,0 2.87455078,2.88984375 2.87455078,6.44185547 L2.87455078,13.573418 L0.46640625,13.573418 C0.213222656,13.573418 0.00802734375,13.7786133 0.00802734375,14.0317969 L0.00802734375,15.5738086 C0.00802734375,20.5527539 3.9375,24.6309961 8.85802734,24.8707617 L8.85802734,29.0831836 L5.15958984,29.0831836 C4.90640625,29.0831836 4.70121094,29.2883789 4.70121094,29.5415625 C4.70121094,29.7947461 4.90640625,29.9999414 5.15958984,29.9999414 L13.4732227,29.9999414 C13.7264063,29.9999414 13.9316016,29.7947461 13.9316016,29.5415625 C13.9316016,29.2883789 13.7264062,29.0831836 13.4732227,29.0831836 L9.77478516,29.0831836 L9.77478516,24.8707617 C14.6953711,24.6309375 18.6247266,20.5527539 18.6247266,15.5738086 L18.6247266,14.0317969 C18.6247852,13.7786133 18.4195898,13.573418 18.1664063,13.573418 Z M17.7080273,15.5738672 C17.7080273,20.2010156 13.9435547,23.9654297 9.31646484,23.9654297 C4.68925781,23.9654297 0.92484375,20.200957 0.92484375,15.5738672 L0.92484375,14.4902344 L2.87455078,14.4902344 L2.87455078,15.69375 C2.87455078,19.2457617 5.76439453,22.1356055 9.31646484,22.1356055 C12.8684766,22.1356055 15.7583203,19.2457617 15.7583203,15.69375 L15.7583203,14.4902344 L17.7080273,14.4902344 L17.7080273,15.5738672 Z" id="Shape" fill-rule="nonzero"></path>
            </g>
            <g id="course" transform="translate(48.295984, 25.181993) rotate(-30.000000) translate(-48.295984, -25.181993) translate(35.252505, 15.181993)">
                <path d="M25.6521739,1.73913043 L24.3478261,1.73913043 L24.3478261,0.434782609 C24.3478261,0.194658804 24.1531673,7.72329061e-16 23.9130435,7.72329061e-16 L14.7826087,7.72329061e-16 C14.0959506,0.00265693944 13.4510161,0.329961184 13.0434783,0.882608696 C12.6359404,0.329961184 11.9910059,0.00265693944 11.3043478,0 L2.17391304,0 C1.93378924,0 1.73913043,0.194658804 1.73913043,0.434782609 L1.73913043,1.73913043 L0.434782609,1.73913043 C0.194658804,1.73913043 0,1.93378924 0,2.17391304 L0,19.5652174 C0,19.8053412 0.194658804,20 0.434782609,20 L25.6521739,20 C25.8922977,20 26.0869565,19.8053412 26.0869565,19.5652174 L26.0869565,2.17391304 C26.0869565,1.93378924 25.8922977,1.73913043 25.6521739,1.73913043 Z M0.869565217,19.1304348 L0.869565217,2.60869565 L1.73913043,2.60869565 L1.73913043,17.826087 C1.73913043,18.0662108 1.93378924,18.2608696 2.17391304,18.2608696 L11.3043478,18.2608696 C11.8553497,18.2637076 12.345552,18.6113688 12.5304348,19.1304348 L0.869565217,19.1304348 Z M12.6086957,17.8391304 C12.2352102,17.550071 11.7766242,17.3926232 11.3043478,17.3913043 L2.60869565,17.3913043 L2.60869565,0.869565217 L11.3043478,0.869565217 C12.0238273,0.871714001 12.6065469,1.45443357 12.6086957,2.17391304 L12.6086957,17.8391304 Z M13.4782609,2.17391304 C13.4804097,1.45443357 14.0631292,0.871714001 14.7826087,0.869565217 L23.4782609,0.869565217 L23.4782609,17.3913043 L14.7826087,17.3913043 C14.3103324,17.3926232 13.8517463,17.550071 13.4782609,17.8391304 L13.4782609,2.17391304 Z M25.2173913,19.1304348 L13.5565217,19.1304348 C13.7414046,18.6113688 14.2316068,18.2637076 14.7826087,18.2608696 L23.9130435,18.2608696 C24.1531673,18.2608696 24.3478261,18.0662108 24.3478261,17.826087 L24.3478261,2.60869565 L25.2173913,2.60869565 L25.2173913,19.1304348 Z" id="Shape" fill-rule="nonzero"></path>
                <path d="M19.5652174,1.73913043 C18.6047222,1.73913043 17.826087,2.51776565 17.826087,3.47826087 L17.826087,13.9130435 C17.8261099,13.9910797 17.8471351,14.0676714 17.8869565,14.1347826 L19.1913043,16.3086957 C19.2696251,16.4406898 19.4117358,16.5216113 19.5652174,16.5216113 C19.7186989,16.5216113 19.8608097,16.4406898 19.9391304,16.3086957 L21.2434783,14.1347826 C21.2832997,14.0676714 21.3043249,13.9910797 21.3043478,13.9130435 L21.3043478,3.47826087 C21.3043478,2.51776565 20.5257126,1.73913043 19.5652174,1.73913043 Z M19.5652174,15.2434783 L18.8478261,14.0434783 L19.5652174,13.5652174 L20.2826087,14.0434783 L19.5652174,15.2434783 Z M20.4347826,13.1 L20,12.8086957 L20,6.95652174 L19.1304348,6.95652174 L19.1304348,12.8086957 L18.6956522,13.1 L18.6956522,6.08695652 L20.4347826,6.08695652 L20.4347826,13.1 Z M20.4347826,5.2173913 L18.6956522,5.2173913 L18.6956522,4.34782609 L20.4347826,4.34782609 L20.4347826,5.2173913 Z M18.6956522,3.47826087 C18.6956522,2.99801326 19.0849698,2.60869565 19.5652174,2.60869565 C20.045465,2.60869565 20.4347826,2.99801326 20.4347826,3.47826087 L18.6956522,3.47826087 Z" id="Shape" fill-rule="nonzero"></path>
                <polygon id="Path" points="3.47826087 2.17391304 11.7391304 2.17391304 11.7391304 3.04347826 3.47826087 3.04347826"></polygon>
                <polygon id="Path" points="3.47826087 3.91304348 8.26086957 3.91304348 8.26086957 4.7826087 3.47826087 4.7826087"></polygon>
                <polygon id="Path" points="9.13043478 3.91304348 11.7391304 3.91304348 11.7391304 4.7826087 9.13043478 4.7826087"></polygon>
                <polygon id="Path" points="3.47826087 5.65217391 5.2173913 5.65217391 5.2173913 6.52173913 3.47826087 6.52173913"></polygon>
                <polygon id="Path" points="6.08695652 5.65217391 11.7391304 5.65217391 11.7391304 6.52173913 6.08695652 6.52173913"></polygon>
            </g>
        </g>
    </g>
</svg>