<?xml version="1.0" encoding="UTF-8"?>
<svg width="293px" height="260px" viewBox="0 0 293 260" version="1.1" xmlns="http://www.w3.org/2000/svg" xmlns:xlink="http://www.w3.org/1999/xlink">
    <!-- Generator: Sketch 52.6 (67491) - http://www.bohemiancoding.com/sketch -->
    <title>like-off</title>
    <desc>Created with Sketch.</desc>
    <g id="Page-1" stroke="none" stroke-width="1" fill="none" fill-rule="evenodd">
        <g id="like-off" fill="#444444" fill-rule="nonzero">
            <path d="M269.410077,24.2057294 C238.326425,-6.90555932 187.945898,-6.92283163 156.855336,24.1988199 L146.802721,34.24798 L136.757015,24.2057294 C105.673364,-6.90555932 55.2928363,-6.92283163 24.2022751,24.1988199 C-6.90901361,55.2962906 -6.91592218,105.649182 24.1988199,136.750106 L146.802721,259.367825 L269.403167,136.753561 C300.511001,105.659545 300.52482,55.3066535 269.410077,24.2057294 Z M250.645196,117.992134 L146.802721,221.844973 L42.9602466,117.98868 C22.222842,97.2616393 22.209024,63.7011054 42.9671561,42.9567923 C63.680378,22.222842 97.2616393,22.209024 117.995589,42.9637009 L146.802721,71.753561 L175.620217,42.9567923 C196.333439,22.222842 229.9147,22.209024 250.645196,42.9637009 C271.386054,63.6907417 271.392963,97.2547298 250.645196,117.992134 Z" id="Shape"></path>
        </g>
    </g>
</svg>